<?xml version="1.0" standalone="no"?>
<!DOCTYPE svg PUBLIC "-//W3C//DTD SVG 20010904//EN"
 "http://www.w3.org/TR/2001/REC-SVG-20010904/DTD/svg10.dtd">
<svg version="1.0" xmlns="http://www.w3.org/2000/svg"
 width="2160.000000pt" height="1620.000000pt" viewBox="0 0 2160.000000 1620.000000"
 preserveAspectRatio="xMidYMid meet">

<g transform="translate(0.000000,1620.000000) scale(0.100000,-0.100000)"
fill="#000000" stroke="none">
<path d="M6862 11708 c-225 -28 -585 -168 -797 -310 -151 -101 -316 -292 -406
-470 -37 -74 -119 -273 -148 -360 -12 -37 -26 -70 -31 -73 -5 -3 -34 29 -65
71 -258 348 -639 572 -1088 638 -253 38 -491 7 -746 -96 -247 -99 -406 -249
-491 -463 -58 -143 -65 -189 -65 -440 0 -257 16 -371 76 -543 73 -204 155
-328 354 -532 78 -80 194 -206 258 -281 64 -76 176 -199 250 -275 230 -239
330 -400 386 -625 102 -402 76 -940 -83 -1724 -62 -310 -80 -458 -73 -630 12
-333 112 -576 332 -804 186 -193 377 -306 614 -366 312 -78 764 -51 1062 64
295 114 646 374 778 576 131 200 159 427 107 865 -47 388 -50 452 -51 895 0
457 5 525 57 765 62 287 230 703 383 945 83 132 208 296 218 286 11 -11 63
-378 78 -556 22 -269 -6 -778 -77 -1410 -88 -780 5 -1415 263 -1804 139 -210
461 -482 667 -564 280 -113 640 -110 921 5 151 62 281 152 417 288 107 108
192 230 253 362 22 48 42 88 45 88 3 -1 28 -35 57 -78 201 -299 523 -473 946
-512 138 -13 283 -2 476 35 69 13 212 36 317 50 206 27 304 49 402 88 79 33
184 102 242 161 24 25 51 46 59 46 7 0 67 -31 131 -70 332 -198 658 -313 1085
-382 51 -8 178 -13 355 -13 255 1 286 3 432 28 376 66 737 205 1050 404 265
169 585 460 778 711 569 737 812 1683 679 2642 -157 1130 -841 2127 -1789
2607 -276 140 -556 229 -880 279 -158 25 -586 25 -743 1 -512 -79 -969 -278
-1374 -597 -41 -33 -80 -60 -85 -60 -5 0 -18 21 -29 48 -85 201 -177 349 -294
471 -154 161 -302 249 -495 295 -380 91 -790 21 -1105 -189 -90 -60 -248 -217
-290 -290 -15 -25 -30 -45 -35 -45 -4 0 -27 26 -51 58 -143 191 -303 323 -513
423 -116 55 -245 92 -382 110 -126 15 -524 6 -651 -15 -159 -27 -336 -94 -484
-182 l-46 -27 -129 130 c-167 168 -283 243 -476 308 -150 50 -368 67 -556 43z
m563 -513 c176 -46 320 -154 384 -288 108 -226 91 -559 -45 -924 -106 -285
-214 -474 -444 -780 -264 -352 -386 -583 -527 -998 -134 -395 -170 -683 -160
-1290 6 -357 18 -537 57 -855 35 -287 25 -442 -34 -558 -89 -174 -440 -437
-716 -537 -226 -81 -602 -108 -834 -60 -213 44 -404 165 -468 297 -71 144 -66
321 21 743 91 439 141 834 148 1166 11 502 -58 859 -233 1201 -109 212 -217
357 -431 581 -75 78 -188 203 -252 277 -63 74 -174 196 -246 270 -189 194
-214 255 -222 530 -6 188 6 257 59 369 37 78 136 182 218 228 285 162 641 194
965 88 245 -80 415 -197 525 -361 86 -129 120 -273 144 -609 16 -217 31 -279
87 -362 77 -112 232 -180 290 -127 66 60 77 148 40 304 -18 74 -22 111 -17
170 12 159 171 650 282 873 118 234 277 385 537 506 193 91 343 140 492 161
87 13 309 4 380 -15z m2020 -264 c217 -58 398 -198 456 -351 64 -168 63 -370
-2 -890 -28 -215 -23 -284 23 -382 60 -126 145 -200 233 -202 50 -1 79 20 101
74 16 37 49 282 84 615 50 477 121 670 314 852 277 264 794 357 1124 203 154
-72 265 -265 279 -485 8 -125 -15 -231 -76 -361 -57 -120 -107 -195 -299 -454
-80 -107 -175 -240 -211 -294 -231 -353 -251 -730 -58 -1125 76 -158 183 -306
476 -661 312 -379 409 -614 573 -1395 49 -234 60 -390 33 -480 -35 -122 -125
-221 -260 -286 -92 -45 -157 -60 -380 -88 -88 -12 -234 -35 -325 -52 -261 -49
-464 -42 -661 22 -273 89 -368 224 -444 634 -33 181 -86 566 -135 980 -76 651
-136 989 -197 1110 -49 98 -145 186 -218 199 -51 10 -98 -14 -121 -60 -15 -31
-20 -66 -22 -168 -7 -248 24 -505 118 -981 123 -622 141 -839 90 -1105 -63
-330 -230 -583 -494 -749 -139 -87 -246 -123 -418 -142 -109 -12 -268 0 -360
27 -115 35 -237 114 -360 235 -63 62 -85 92 -117 160 -85 183 -124 429 -125
789 0 211 4 285 31 530 62 550 77 775 78 1145 0 373 -2 401 -75 874 -21 142
-48 283 -60 314 -12 31 -43 86 -70 124 -28 37 -50 77 -50 89 0 12 29 80 64
150 193 389 288 765 273 1084 -3 69 -11 152 -17 184 -8 42 -9 66 -1 83 14 31
171 133 265 172 173 72 307 90 631 87 199 -3 241 -6 310 -25z m5283 -211 c950
-139 1725 -816 2031 -1774 162 -508 184 -1085 61 -1626 -58 -252 -127 -444
-250 -695 -258 -526 -655 -955 -1145 -1236 -277 -159 -591 -266 -922 -315
-138 -21 -491 -24 -623 -5 -283 39 -553 120 -786 236 -186 93 -199 105 -196
186 4 97 -16 260 -58 464 -144 709 -231 977 -442 1358 -70 126 -70 128 -64
185 3 31 26 395 51 807 25 413 55 903 66 1090 13 203 19 385 15 451 -4 95 -3
114 13 140 28 45 87 101 139 131 26 15 67 42 92 59 25 18 69 41 98 52 29 11
96 49 150 83 367 238 803 391 1219 429 139 12 395 3 551 -20z m-2727 -1860
c-7 -107 -16 -256 -21 -330 -5 -74 -14 -233 -21 -352 -7 -120 -16 -218 -20
-218 -11 0 -124 150 -169 224 -64 106 -83 169 -84 276 -1 180 78 352 277 602
l42 53 4 -30 c2 -16 -2 -118 -8 -225z"/>
<path d="M14678 9136 c-89 -32 -163 -93 -211 -173 -10 -18 -27 -33 -36 -33
-10 0 -55 23 -101 50 -183 110 -322 118 -416 24 -57 -56 -79 -124 -78 -239 2
-185 95 -461 220 -652 59 -90 179 -205 249 -238 83 -40 169 -40 247 -2 178 87
460 466 528 707 28 101 28 227 1 305 -39 111 -119 207 -205 246 -48 22 -143
24 -198 5z"/>
</g>
</svg>
